# xmcd CD database file
#
# Track frame offsets:
#	150
#	19287
#	36280
#
# Disc length: 770 seconds
#
# Revision: 0
# Processed by: cddbd v1.5.1PL0 Copyright (c) Steve Scherf et al.
# Submitted via: CDex 1.51
#
DISCID=1f030003
DTITLE=Freeway-High2 - 彼方へ - S.O.Sダーリン
DYEAR=2004
DGENRE=JPop
TTITLE0=彼方へ
TTITLE1=S.O.Sダーリン
TTITLE2=彼方へ(acoustic version)
EXTD=YEAR: 2004
EXTT0=
EXTT1=
EXTT2=
PLAYORDER=
